<?xml version="1.0" standalone="yes"?>
<svg xmlns="http://www.w3.org/2000/svg" width="512" height="512">
<path style="fill:#ffffff; stroke:none;" d="M0 0L0 512L469 512L469 511C452.717 506.299 440.469 486.611 428.996 475C404.986 450.701 380.747 426.327 357.83 401C350.476 392.873 341.322 385.975 335 377C328.115 379.194 322.333 384.251 316 387.691C303.59 394.434 290.526 400.422 277 404.565C209.809 425.147 137.208 410.162 83 365.536C65.9054 351.463 50.7998 333.988 39.3997 315C-22.1265 212.52 14.4196 76.0502 123 21.7531C144.707 10.8982 170.388 1.2037 195 1L176 0L137 0L0 0z"/>
<path style="fill:#010101; stroke:none;" d="M335 377C338.31 384.097 345.516 389.514 351 395C360.165 404.169 368.844 413.8 377.999 423C404.816 449.947 429.03 483.157 459 506.61C472.646 517.288 494.897 512.328 501.518 496C510.077 474.893 491.621 461.761 479.17 448C454.098 420.291 425.924 395.203 401.424 367C395.614 360.311 378.138 348.773 376.768 340C375.982 334.972 384.653 326.99 387.329 323C396.532 309.283 404.253 294.526 409.947 279C425.943 235.377 426.751 187.286 412.975 143C372.275 12.1678 208.164 -41.4668 97 36.4383C56.3874 64.9 26.5169 107.846 14.4753 156C10.8858 170.354 10.4283 184.475 8.71451 199C4.88382 231.466 15.2806 265.581 28 295C41.672 326.622 65.7015 353.433 93 373.873C124.587 397.525 161.117 409.454 200 413.17C233.889 416.408 268.915 409.883 300 396.14C312.263 390.718 322.999 382.677 335 377z"/>
<path style="fill:#ffffff; stroke:none;" d="M236 0L236 1C259.773 1.19678 285.003 10.2544 306 20.7531C388.771 62.1388 433.722 151.233 419.704 242C416.098 265.345 407.23 289.842 394.938 310C390.543 317.208 385.952 324.255 380.87 331C379.039 333.43 375.577 336.652 376.056 340C376.667 344.261 382.16 348.159 385 351C392.513 358.516 399.547 366.453 407.004 374C435.669 403.011 463.514 432.802 491.985 462C506.107 476.482 508.706 506.347 483 511L483 512L512 512L512 0L236 0M214 54.5139C154.318 58.2633 100.284 89.1578 75.8727 146C33.309 245.109 110.794 366.526 222 358.91C290.391 354.227 350.749 306.602 364.551 238C382.671 147.935 310.762 48.435 214 54.5139z"/>
</svg>
