<svg id="Layer_1" data-name="Layer 1" xmlns="http://www.w3.org/2000/svg" viewBox="0 0 3252.88 1178.69"><defs><style>.cls-1{fill:#fff;}</style></defs><path class="cls-1" d="M945,86.7c-21.1,1.1-51.1,5.8-79.9,12.3C768.4,121.1,683.2,163.4,608,226.8c-17.4,14.7-52.1,49.8-67.1,67.7-56.2,67.7-95.4,142.7-119.4,228.8-4.9,17.8-10.5,42.2-12.9,56.2-7.5,43.8-8.3,118.4-2,174,2,17.5,3.8,27.7,8.5,48.4,22.4,96.8,62.6,177.7,126.5,254.6,12.3,14.8,47.8,50.8,63.4,64.1,22.6,19.4,39.9,32.3,50.9,37.9,4.6,2.3,6.4,2.7,11.6,2.3,12-.7,26.2-10.4,31.6-21.5,1.8-3.6,2.4-6.5,2.4-11.8,0-13.4-7.5-23.5-32.4-43.2-37.5-29.9-65.1-58.2-92.3-94.7-46.9-62.8-82.2-141.4-97.2-216.6-5.7-28.4-8.2-66.7-7.2-110,1.3-57.8,5-84.6,18.2-130.3,25-86.8,66.9-157.2,132.4-222.8,44.6-44.7,87-75.7,139.5-102,42.7-21.3,95.8-38.9,140-46.3,42.2-7.1,138.7-6.3,184.4,1.5,27.4,4.6,76.4,19.3,105.1,31.4a513.86,513.86,0,0,1,184.8,132q47.85,53.55,66.8,90.8l6.6,12.9-94.9-.6c-52.1-.3-97.1-.9-100-1.3l-5.2-.8-5.9-11.5c-10.5-20.5-38.4-65.7-54-87.7-33.4-46.8-90-103.2-128.5-128.2-13.6-8.7-20.6-11.5-27.9-10.8-10.8,1-21.3,9.1-26.6,20.5-2.3,4.8-2.7,7.1-2.7,14.7,0,8.1.3,9.5,2.9,14.3,3.7,6.7,12.1,14.6,36.1,34.2,32.4,26.5,59.3,54.3,83.3,86.3,27.1,36,46,68.7,69.7,120.2,4.8,10.4,9,19.3,9.4,19.8s79.5.6,175.8.5l175.2-.3-5.8-15c-8.3-21.3-15.5-37.4-29.6-65.6-35.2-70.5-55.9-99.7-108.5-153.3-57.7-58.8-94.6-86-160.5-118.6-35.2-17.4-60.1-27.2-94.6-37.4-48.3-14.2-84.1-19.8-146.4-22.6C992.2,86.1,958.2,86,945,86.7Z" transform="translate(-127.12 -86.24)"/><path class="cls-1" d="M598.5,98c-16.9,1.5-36.6,6.1-62.6,14.6-76.4,24.8-142.6,61.2-203,111.5C316.6,237.7,279.2,275,265,292Q174.1,400.15,138.1,543.8c-9,35.5-10,46.2-10.8,110.7-.8,76.2,1,108.2,8.2,140.6,38.9,174.7,150,321.5,304.5,402.2,141.7,74.1,304.4,87.9,455.9,38.5,135.9-44.2,250.7-136.2,325.8-260.8,3.8-6.3,12.7-22,19.7-34.8l12.8-23.2h68.7c63.4,0,116,1.1,123.8,2.6,1.9.4,3.3,1.2,3.3,2,0,6.5-24.8,42.8-53.4,78.4-36.1,44.9-73.8,79.5-119.1,109.7-43.2,28.8-82.3,47-136.5,63.8-24.2,7.5-44.5,15.3-50.5,19.3-14.6,10.1-14.7,33.2,0,49.9,5.9,6.8,9.1,7.8,21.9,6.9,34.7-2.1,89.1-20.3,145.8-48.7,111.1-55.6,202-146.8,259.3-260.1,12.1-23.8,35.2-76.8,38.9-89.3l1.5-4.7-158.2.5c-145.3.5-178.6,1.1-190.5,3.3-3.8.7-3.4-.2-21.3,38.9-16.9,36.8-35.9,67.8-62.6,102.3-27.4,35.2-62.7,71.4-95.2,97.1-62.4,49.5-168,93.5-246.3,102.5-39.2,4.6-107.3,3.9-149.3-1.5-30.7-3.9-80.2-17.8-116-32.5-17.7-7.3-53.5-25.1-68.7-34.2a548.49,548.49,0,0,1-70.9-50.2c-15.8-13.2-51.5-48.9-64.5-64.5a529.65,529.65,0,0,1-82.8-136.8c-18.7-45-29.2-88.1-35.3-144.2-2.4-22.7-2.4-84.4,0-107,7.2-65.7,22-116.6,51.3-175.5,25.9-52.1,55.2-93.3,95.3-134.2,27-27.6,50.5-47.1,82.1-68.3a507.49,507.49,0,0,1,114-57.8c11.9-4.3,21-7.1,53.3-16.7,34.7-10.2,44.5-16.7,47.7-31.7,2.7-12.3-5.9-30.7-16.9-36.2C618.7,97.9,609.1,97.1,598.5,98Z" transform="translate(-127.12 -86.24)"/><path class="cls-1" d="M1832.5,346.5c-52.6,8.4-87.7,44.5-96.2,99-1.8,12-2,38.5-.3,50.4,7.5,53.4,39.8,89.6,89.5,100.1,14.5,3,37.7,3.7,52.3,1.6,20.6-3.1,40-10.3,53.6-20,11-7.9,10.8-5.9,3-24.8-3.7-8.9-7.1-16.7-7.5-17.2s-1.8-.1-3.1,1.1c-4.4,4-17.8,12.1-25.2,15.2-13.7,5.7-23.3,7.5-40.1,7.4-12,0-16.6-.5-23-2.2-13-3.4-21.8-8.3-30.5-17-14.1-14-20.8-30.5-23-56.5-2.9-36.4,7.1-67.6,27-84.1,6-5,16.6-10.2,25.9-12.7,11.4-3.1,36.1-3.1,48.6,0,10.8,2.7,26.7,10.2,35.3,16.6a84.29,84.29,0,0,0,7.2,4.9c.6.1,4.2-7.5,8.1-16.8l7-17-4.7-4.3c-10.2-9.3-27.3-17.4-46.4-21.9C1876.6,345.1,1846.9,344.2,1832.5,346.5Z" transform="translate(-127.12 -86.24)"/><path class="cls-1" d="M2608,345.5c-.8.2-4.9.9-9,1.5-35.2,5.7-64.9,28.3-80.5,61.3-8.9,18.9-12.7,37.8-12.7,63.7,0,38.9,10.3,68.3,32.4,92.6,10.4,11.3,29,23.1,44.8,28.2,24.2,7.9,57.1,8.1,81.4.6,18.2-5.7,38-18.7,49.3-32.5,19.9-24,29.3-52.7,29.3-89.4,0-40.4-10.9-70.1-34.5-94-17.6-17.9-37.7-27.7-64-31.5C2638.2,345.1,2611.8,344.8,2608,345.5Zm34.5,39c26.8,5.6,45.7,27.3,52.1,60,2.5,12.5,2.5,41.4.1,53.8-3.9,19.6-11.9,35.1-23.4,45.8-7.5,6.9-12.8,10-22.9,13.6-7.3,2.5-9.1,2.7-23.4,2.8-13.5,0-16.4-.3-23-2.4-9.4-2.9-13-4.7-20.7-10.6-14.9-11.1-25.2-31.8-28.3-56.9-1.6-12.3-.7-38.2,1.5-48.6,3.8-17.2,12.3-33.1,22.9-42.7,6.8-6.2,19.6-12.8,28.6-14.7C2614.7,382.7,2633.7,382.7,2642.5,384.5Z" transform="translate(-127.12 -86.24)"/><path class="cls-1" d="M1989,472V596h44V489h128V596h45V348h-45V452H2033V348h-44Z" transform="translate(-127.12 -86.24)"/><path class="cls-1" d="M2268,472V596h44V495.8l22.3.5c24.4.5,29.5,1.4,37.5,6.9,5.8,4,8,7.5,32.5,52.8l21.4,39.5,24.2.3c13.2.1,24.1-.1,24.1-.4,0-1-38.8-72.1-43.6-79.9-5.4-8.9-12.3-15.6-20.2-19.8l-6.3-3.4,8.5-2.7c22.9-7.5,38.8-24,44.7-46.3,2.9-11,2.9-31.6,0-42.6-3.4-13.1-7.5-20.2-17.1-29.8-6.8-6.9-10.2-9.4-17-12.8-10.1-4.9-20.4-7.7-34.1-9.1-5.7-.5-34.5-1-65.5-1H2268Zm115.4-87.5c20.4,3.6,31.2,14.8,33.1,34.1,1.7,17.5-5.3,32.2-18.5,38.9-10.2,5.2-14.9,5.7-51.7,6.2l-34.3.5V383h31.8C2366.5,383.1,2377.7,383.5,2383.4,384.5Z" transform="translate(-127.12 -86.24)"/><path class="cls-1" d="M2797,472V596h40V513c0-45.7.3-83,.8-83s16.5,28.7,35.8,63.8l35.2,63.7h26.3l35.2-64.2c19.4-35.3,35.5-64.3,36-64.3s.7,37.6.7,83.5V596h40V348h-36.5L2967,428.6c-24,44.4-44,80.6-44.5,80.6s-20.6-36.2-44.6-80.3l-43.6-80.4-18.6-.3L2797,348Z" transform="translate(-127.12 -86.24)"/><path class="cls-1" d="M3192.1,352.2c-1,2.4-26,57.6-55.6,122.8s-53.9,119.1-54.2,119.7c-.4,1,4.4,1.3,22,1.3h22.4l3.3-7.8c1.7-4.2,7.3-17.3,12.2-29l9.1-21.2h121.4l12.4,29,12.4,29h22.2c12.3,0,22.3-.3,22.2-.8s-25.1-56.1-55.7-123.7l-55.8-123-18.2-.3-18.3-.2Zm42.4,96c12.1,28.7,22.1,52.7,22.3,53.5.3,1.1-7.8,1.3-44.7,1.3-24.8,0-45.1-.3-45.1-.8,0-1.2,44.4-106.2,45-106.2C3212.3,396,3222.4,419.5,3234.5,448.2Z" transform="translate(-127.12 -86.24)"/><path class="cls-1" d="M1851.1,703.2c-1,2.4-26,57.6-55.6,122.8s-53.9,119.1-54.2,119.7c-.4,1,4.4,1.3,22,1.3h22.4l3.3-7.8c1.7-4.2,7.3-17.3,12.2-29l9.1-21.2h121.4l12.4,29,12.4,29h22.2c12.3,0,22.3-.3,22.2-.8s-25.1-56.1-55.7-123.7l-55.8-123-18.2-.3-18.3-.2Zm42.4,96c12.1,28.7,22.1,52.7,22.3,53.5.3,1.1-7.8,1.3-44.7,1.3-24.8,0-45.1-.3-45.1-.8,0-1.2,44.4-106.2,45-106.2C1871.3,747,1881.4,770.5,1893.5,799.2Z" transform="translate(-127.12 -86.24)"/><path class="cls-1" d="M2037,823V947h44V854h32.9c46.9,0,59.8-1.7,77.1-10.2,16.3-8.1,29.9-24.9,34.5-42.8,5.9-22.6,2.7-50.4-7.6-67.6-4.7-7.8-16.9-19.1-25.4-23.6-9.3-4.9-22.1-8.5-34.6-9.8-5.7-.5-34.3-1-65.5-1H2037Zm122.7-85.8c15.6,5.6,22.9,14.5,25.5,31.1,1.3,8.9.1,20.6-3.1,28-2.7,6.2-9.4,13.3-15.6,16.4-10.4,5.3-12.5,5.6-50.2,6l-35.3.5V733.8l35.8.4C2152.4,734.5,2152.5,734.5,2159.7,737.2Z" transform="translate(-127.12 -86.24)"/><path class="cls-1" d="M2273,823V947h44V854h32.9c46.9,0,59.8-1.7,77.1-10.2,16.3-8.1,29.9-24.9,34.5-42.8,5.9-22.6,2.7-50.4-7.6-67.6-4.7-7.8-16.9-19.1-25.4-23.6-9.3-4.9-22.1-8.5-34.6-9.8-5.7-.5-34.3-1-65.5-1H2273Zm122.7-85.8c15.6,5.6,22.9,14.5,25.5,31.1,1.3,8.9.1,20.6-3.1,28-2.7,6.2-9.4,13.3-15.6,16.4-10.4,5.3-12.5,5.6-50.2,6l-35.3.5V733.8l35.8.4C2388.4,734.5,2388.5,734.5,2395.7,737.2Z" transform="translate(-127.12 -86.24)"/><path class="cls-1" d="M2566.1,703.2c-1,2.4-26,57.6-55.6,122.8s-53.9,119.1-54.2,119.7c-.4,1,4.4,1.3,22,1.3h22.4l3.3-7.8c1.7-4.2,7.3-17.3,12.2-29l9.1-21.2h121.4l12.4,29,12.4,29h22.2c12.3,0,22.3-.3,22.2-.8s-25.1-56.1-55.7-123.7l-55.8-123-18.2-.3-18.3-.2Zm42.4,96c12.1,28.7,22.1,52.7,22.3,53.5.3,1.1-7.8,1.3-44.7,1.3-24.8,0-45.1-.3-45.1-.8,0-1.2,44.4-106.2,45-106.2C2586.3,747,2596.4,770.5,2608.5,799.2Z" transform="translate(-127.12 -86.24)"/><path class="cls-1" d="M2752,823V947h44V846.8l22.3.5c24.4.5,29.5,1.4,37.5,6.9,5.8,4,8,7.5,32.5,52.8l21.4,39.5,24.2.3c13.2.1,24.1-.1,24.1-.4,0-1-38.8-72.1-43.6-79.9-5.4-8.9-12.3-15.6-20.2-19.8l-6.3-3.4,8.5-2.7c22.9-7.5,38.8-24,44.7-46.3,2.9-11,2.9-31.6,0-42.6-3.4-13.1-7.5-20.2-17.1-29.8-6.8-6.9-10.2-9.4-17-12.8-10.1-4.9-20.4-7.7-34.1-9.1-5.7-.5-34.5-1-65.5-1H2752Zm115.4-87.5c20.4,3.6,31.2,14.8,33.1,34.1,1.7,17.5-5.3,32.2-18.5,38.9-10.2,5.2-14.9,5.7-51.7,6.2l-34.3.5V734h31.8C2850.5,734.1,2861.7,734.5,2867.4,735.5Z" transform="translate(-127.12 -86.24)"/><path class="cls-1" d="M3000,823V947h164V912l-60.7-.2-60.8-.3-.3-36.3L3042,839h114V803H3042V734h122V699H3000Z" transform="translate(-127.12 -86.24)"/><path class="cls-1" d="M3217,823V947h163V909H3261V699h-44Z" transform="translate(-127.12 -86.24)"/></svg>