<svg id="Layer_1" data-name="Layer 1" xmlns="http://www.w3.org/2000/svg" viewBox="0 0 2020.65 1664.64"><defs><style>.cls-1{fill:#ff5733;}</style></defs><path class="cls-1" d="M1249.87,35.63C1220.07,37.18,1177.7,43.82,1137,53,1000.46,84.21,880.14,144,773.93,233.49c-24.57,20.76-73.58,70.33-94.76,95.61C599.8,424.71,544.44,530.63,510.54,652.23c-6.92,25.14-14.82,59.6-18.21,79.37-10.6,61.86-11.73,167.21-2.83,245.73,2.83,24.72,5.37,39.12,12,68.36,31.63,136.71,88.4,251,178.65,359.56,17.37,20.9,67.51,71.75,89.54,90.53,31.91,27.4,56.35,45.62,71.88,53.52,6.5,3.25,9,3.82,16.38,3.25,16.95-1,37-14.69,44.63-30.36,2.54-5.09,3.39-9.18,3.39-16.67,0-18.92-10.59-33.18-45.76-61-53-42.22-91.94-82.19-130.35-133.74-66.23-88.69-116.09-199.69-137.27-305.9-8.05-40.11-11.58-94.2-10.17-155.35,1.84-81.63,7.06-119.48,25.7-184,35.31-122.58,94.48-222,187-314.65,63-63.13,122.87-106.91,197-144,60.3-30.08,135.3-54.94,197.72-65.39,59.6-10,195.88-8.9,260.42,2.12,38.7,6.49,107.9,27.25,148.43,44.34a725.83,725.83,0,0,1,261,186.42q67.57,75.63,94.34,128.24l9.32,18.22-134-.85c-73.58-.43-137.14-1.27-141.23-1.84l-7.35-1.13-8.33-16.24c-14.83-28.95-54.23-92.78-76.26-123.85-47.17-66.1-127.11-145.75-181.48-181.06-19.2-12.28-29.09-16.24-39.4-15.25-15.25,1.41-30.08,12.85-37.57,28.95-3.25,6.78-3.81,10-3.81,20.76,0,11.44.42,13.42,4.1,20.2,5.22,9.46,17.08,20.62,51,48.3,45.76,37.42,83.75,76.68,117.64,121.88,38.27,50.84,65,97,98.44,169.75,6.78,14.69,12.71,27.26,13.27,28s112.28.85,248.28.71l247.43-.42-8.19-21.19c-11.72-30.08-21.89-52.82-41.81-92.64-49.71-99.57-78.94-140.81-153.23-216.5-81.48-83.05-133.6-121.46-226.67-167.5-49.71-24.57-84.87-38.41-133.6-52.82-68.21-20-118.77-28-206.75-31.92C1316.53,34.78,1268.51,34.64,1249.87,35.63Z" transform="translate(-94.81 -34.98)"/><path class="cls-1" d="M760.52,51.59c-23.87,2.12-51.69,8.61-88.41,20.62-107.9,35-201.39,86.43-286.69,157.47-23,19.2-75.84,71.88-95.9,95.89Q161.15,478.3,110.31,681.18C97.6,731.32,96.18,746.43,95.05,837.52c-1.13,107.61,1.42,152.81,11.58,198.56,54.94,246.73,211.85,454.05,430,568,200.12,104.65,429.9,124.14,643.86,54.37,191.92-62.42,354-192.35,460.12-368.32,5.36-8.9,17.93-31.07,27.82-49.14l18.07-32.77h97c89.54,0,163.82,1.55,174.84,3.67,2.68.57,4.66,1.7,4.66,2.83,0,9.18-35,60.44-75.42,110.72-51,63.41-104.22,112.27-168.2,154.93-61,40.67-116.23,66.37-192.77,90.1-34.18,10.59-62.85,21.61-71.32,27.26-20.62,14.26-20.77,46.88,0,70.47,8.33,9.6,12.85,11,30.92,9.74,49-3,125.84-28.67,205.91-68.78,156.91-78.52,285.28-207.32,366.21-367.33,17.08-33.61,49.71-108.46,54.93-126.11l2.12-6.64-223.42.7c-205.2.71-252.23,1.56-269,4.67-5.36,1-4.8-.29-30.08,54.93-23.87,52-50.7,95.75-88.41,144.48-38.69,49.71-88.55,100.83-134.45,137.13-88.12,69.91-237.26,132-347.84,144.76-55.36,6.49-151.54,5.51-210.85-2.12-43.36-5.51-113.27-25.14-163.82-45.9-25-10.31-75.56-35.45-97-48.3a773.46,773.46,0,0,1-100.13-70.9c-22.31-18.64-72.73-69.06-91.09-91.09-49.43-59.59-88-123.29-116.94-193.2-26.41-63.55-41.23-124.42-49.85-203.65-3.39-32.05-3.39-119.19,0-151.11,10.17-92.78,31.07-164.67,72.45-247.85,36.58-73.58,78-131.77,134.59-189.53,38.13-39,71.32-66.52,116-96.46C568,220.5,618.16,195.08,676.49,174c16.8-6.07,29.65-10,75.27-23.58,49-14.41,62.85-23.59,67.37-44.77,3.81-17.37-8.34-43.36-23.87-51.13C789.05,51.45,775.49,50.32,760.52,51.59Z" transform="translate(-94.81 -34.98)"/></svg>